{
  "accessors": [
    {
      "bufferView": 1,
      "componentType": 5126,
      "count": 65532,
      "max": [
        0.16482608020305634,
        0.041884250938892365,
        0.05670085549354553
      ],
      "min": [
        -0.028170838952064514,
        -0.12644000351428986,
        -0.040754418820142746
      ],
      "type": "VEC3"
    },
    {
      "bufferView": 1,
      "byteOffset": 786384,
      "componentType": 5126,
      "count": 65532,
      "max": [
        0.999906063079834,
        0.840073823928833,
        0.9999520182609558
      ],
      "min": [
        -0.9046244025230408,
        -0.9998449087142944,
        -0.4577745497226715
      ],
      "type": "VEC3"
    },
    {
      "bufferView": 2,
      "componentType": 5126,
      "count": 65532,
      "max": [
        0.772549033164978,
        0.7764706015586853,
        0.7490196228027344,
        1.0
      ],
      "min": [
        0.03921568766236305,
        0.0313725508749485,
        0.01568627543747425,
        1.0
      ],
      "type": "VEC4"
    },
    {
      "bufferView": 0,
      "componentType": 5125,
      "count": 364332,
      "type": "SCALAR"
    },
    {
      "bufferView": 1,
      "byteOffset": 1572768,
      "componentType": 5126,
      "count": 65532,
      "max": [
        0.1631547063589096,
        0.12955017387866974,
        0.05736914649605751
      ],
      "min": [
        -0.0013153315521776676,
        -0.03143404424190521,
        -0.038284629583358765
      ],
      "type": "VEC3"
    },
    {
      "bufferView": 1,
      "byteOffset": 2359152,
      "componentType": 5126,
      "count": 65532,
      "max": [
        0.999891996383667,
        0.9999909400939941,
        0.9999940395355225
      ],
      "min": [
        -0.8727523684501648,
        -0.9971900582313538,
        -0.5769683718681335
      ],
      "type": "VEC3"
    },
    {
      "bufferView": 2,
      "byteOffset": 1048512,
      "componentType": 5126,
      "count": 65532,
      "max": [
        0.8039215803146362,
        0.7843137383460999,
        0.7176470756530762,
        1.0
      ],
      "min": [
        0.09019608050584793,
        0.08627451211214066,
        0.019607843831181526,
        1.0
      ],
      "type": "VEC4"
    },
    {
      "bufferView": 0,
      "byteOffset": 1457328,
      "componentType": 5125,
      "count": 366750,
      "type": "SCALAR"
    },
    {
      "bufferView": 1,
      "byteOffset": 3145536,
      "componentType": 5126,
      "count": 65532,
      "max": [
        0.1651073843240738,
        0.13487568497657776,
        0.0580020509660244
      ],
      "min": [
        -0.26017406582832336,
        -0.1818385124206543,
        -0.07500721514225006
      ],
      "type": "VEC3"
    },
    {
      "bufferView": 1,
      "byteOffset": 3931920,
      "componentType": 5126,
      "count": 65532,
      "max": [
        0.9999840259552002,
        0.9999901056289673,
        0.9999851584434509
      ],
      "min": [
        -0.9999711513519287,
        -0.9999827146530151,
        -0.9390674829483032
      ],
      "type": "VEC3"
    },
    {
      "bufferView": 2,
      "byteOffset": 2097024,
      "componentType": 5126,
      "count": 65532,
      "max": [
        1.0,
        0.7372549176216125,
        0.7019608020782471,
        1.0
      ],
      "min": [
        0.0,
        0.0,
        0.0,
        1.0
      ],
      "type": "VEC4"
    },
    {
      "bufferView": 0,
      "byteOffset": 2924328,
      "componentType": 5125,
      "count": 357066,
      "type": "SCALAR"
    },
    {
      "bufferView": 1,
      "byteOffset": 4718304,
      "componentType": 5126,
      "count": 64516,
      "max": [
        0.16149695217609406,
        0.13069860637187958,
        0.057994890958070755
      ],
      "min": [
        -0.08516708761453629,
        -0.1233561784029007,
        -0.05360669270157814
      ],
      "type": "VEC3"
    },
    {
      "bufferView": 1,
      "byteOffset": 5492496,
      "componentType": 5126,
      "count": 64516,
      "max": [
        0.9806703329086304,
        0.9987409710884094,
        0.9999987483024597
      ],
      "min": [
        -0.9998508095741272,
        -0.999706506729126,
        -0.9153906106948853
      ],
      "type": "VEC3"
    },
    {
      "bufferView": 2,
      "byteOffset": 3145536,
      "componentType": 5126,
      "count": 64516,
      "max": [
        1.0,
        0.7607843279838562,
        0.7098039388656616,
        1.0
      ],
      "min": [
        0.0,
        0.0,
        0.0,
        1.0
      ],
      "type": "VEC4"
    },
    {
      "bufferView": 0,
      "byteOffset": 4352592,
      "componentType": 5125,
      "count": 333078,
      "type": "SCALAR"
    }
  ],
  "asset": {
    "extras": {
      "author": "John Davies (https://sketchfab.com/johndavies)",
      "license": "CC-BY-SA-4.0 (http://creativecommons.org/licenses/by-sa/4.0/)",
      "source": "https://sketchfab.com/3d-models/sea-shell-2-270a6763b75e42f190381f13a28ccf32",
      "title": "Sea Shell #2"
    },
    "generator": "Sketchfab-12.66.0",
    "version": "2.0"
  },
  "bufferViews": [
    {
      "buffer": 0,
      "byteLength": 5684904,
      "name": "floatBufferViews",
      "target": 34963
    },
    {
      "buffer": 0,
      "byteLength": 6266688,
      "byteOffset": 5684904,
      "byteStride": 12,
      "name": "floatBufferViews",
      "target": 34962
    },
    {
      "buffer": 0,
      "byteLength": 4177792,
      "byteOffset": 11951592,
      "byteStride": 16,
      "name": "floatBufferViews",
      "target": 34962
    }
  ],
  "buffers": [
    {
      "byteLength": 16129384,
      "uri": "scene.bin"
    }
  ],
  "materials": [
    {
      "doubleSided": true,
      "name": "Scene_-_Root",
      "pbrMetallicRoughness": {
        "metallicFactor": 0.0,
        "roughnessFactor": 0.6
      }
    }
  ],
  "meshes": [
    {
      "name": "Object_0",
      "primitives": [
        {
          "attributes": {
            "COLOR_0": 2,
            "NORMAL": 1,
            "POSITION": 0
          },
          "indices": 3,
          "material": 0,
          "mode": 4
        }
      ]
    },
    {
      "name": "Object_1",
      "primitives": [
        {
          "attributes": {
            "COLOR_0": 6,
            "NORMAL": 5,
            "POSITION": 4
          },
          "indices": 7,
          "material": 0,
          "mode": 4
        }
      ]
    },
    {
      "name": "Object_2",
      "primitives": [
        {
          "attributes": {
            "COLOR_0": 10,
            "NORMAL": 9,
            "POSITION": 8
          },
          "indices": 11,
          "material": 0,
          "mode": 4
        }
      ]
    },
    {
      "name": "Object_3",
      "primitives": [
        {
          "attributes": {
            "COLOR_0": 14,
            "NORMAL": 13,
            "POSITION": 12
          },
          "indices": 15,
          "material": 0,
          "mode": 4
        }
      ]
    }
  ],
  "nodes": [
    {
      "children": [
        1
      ],
      "matrix": [
        1.0,
        0.0,
        0.0,
        0.0,
        0.0,
        2.220446049250313e-16,
        -1.0,
        0.0,
        0.0,
        1.0,
        2.220446049250313e-16,
        0.0,
        0.0,
        0.0,
        0.0,
        1.0
      ],
      "name": "Sketchfab_model"
    },
    {
      "children": [
        2,
        3,
        4,
        5
      ],
      "name": "Geode"
    },
    {
      "mesh": 0,
      "name": "Object_2"
    },
    {
      "mesh": 1,
      "name": "Object_3"
    },
    {
      "mesh": 2,
      "name": "Object_4"
    },
    {
      "mesh": 3,
      "name": "Object_5"
    }
  ],
  "scene": 0,
  "scenes": [
    {
      "name": "Sketchfab_Scene",
      "nodes": [
        0
      ]
    }
  ]
}
