{
  "accessors": [
    {
      "bufferView": 2,
      "componentType": 5126,
      "count": 6842,
      "max": [
        0.02823299914598465,
        0.052418000996112823,
        0.043147001415491104
      ],
      "min": [
        -0.02551399916410446,
        -0.05889099836349487,
        -0.0177449993789196
      ],
      "type": "VEC3"
    },
    {
      "bufferView": 2,
      "byteOffset": 82104,
      "componentType": 5126,
      "count": 6842,
      "max": [
        0.9988641738891602,
        0.9999971389770508,
        0.9999721050262451
      ],
      "min": [
        -0.9998586773872375,
        -0.9995191693305969,
        -0.9996142983436584
      ],
      "type": "VEC3"
    },
    {
      "bufferView": 3,
      "componentType": 5126,
      "count": 6842,
      "max": [
        0.9999937415122986,
        0.9988781809806824,
        0.9991905689239502,
        1.0
      ],
      "min": [
        -0.9993813037872314,
        -0.9992664456367493,
        -0.9993636012077332,
        -1.0
      ],
      "type": "VEC4"
    },
    {
      "bufferView": 1,
      "componentType": 5126,
      "count": 6842,
      "max": [
        0.9980400204658508,
        0.9762499928474426
      ],
      "min": [
        0.0019499999471008778,
        0.0019499999471008778
      ],
      "type": "VEC2"
    },
    {
      "bufferView": 0,
      "componentType": 5125,
      "count": 38736,
      "type": "SCALAR"
    }
  ],
  "asset": {
    "extras": {
      "author": "blenderboom (https://sketchfab.com/blenderboom)",
      "license": "CC-BY-4.0 (http://creativecommons.org/licenses/by/4.0/)",
      "source": "https://sketchfab.com/3d-models/sea-shell-742a5f4a7bc84abe8d0c645cdb411cc8",
      "title": "Sea shell"
    },
    "generator": "Sketchfab-12.65.0",
    "version": "2.0"
  },
  "bufferViews": [
    {
      "buffer": 0,
      "byteLength": 154944,
      "name": "floatBufferViews",
      "target": 34963
    },
    {
      "buffer": 0,
      "byteLength": 54736,
      "byteOffset": 154944,
      "byteStride": 8,
      "name": "floatBufferViews",
      "target": 34962
    },
    {
      "buffer": 0,
      "byteLength": 164208,
      "byteOffset": 209680,
      "byteStride": 12,
      "name": "floatBufferViews",
      "target": 34962
    },
    {
      "buffer": 0,
      "byteLength": 109472,
      "byteOffset": 373888,
      "byteStride": 16,
      "name": "floatBufferViews",
      "target": 34962
    }
  ],
  "buffers": [
    {
      "byteLength": 483360,
      "uri": "scene.bin"
    }
  ],
  "images": [
    {
      "uri": "textures/BB_13_001_baseColor.png"
    },
    {
      "uri": "textures/BB_13_001_metallicRoughness.png"
    },
    {
      "uri": "textures/BB_13_001_normal.png"
    }
  ],
  "materials": [
    {
      "doubleSided": true,
      "name": "BB_13_001",
      "normalTexture": {
        "index": 2
      },
      "occlusionTexture": {
        "index": 1
      },
      "pbrMetallicRoughness": {
        "baseColorTexture": {
          "index": 0
        },
        "metallicFactor": 0.0,
        "metallicRoughnessTexture": {
          "index": 1
        },
        "roughnessFactor": 0.4285442073
      }
    }
  ],
  "meshes": [
    {
      "name": "Object_0",
      "primitives": [
        {
          "attributes": {
            "NORMAL": 1,
            "POSITION": 0,
            "TANGENT": 2,
            "TEXCOORD_0": 3
          },
          "indices": 4,
          "material": 0,
          "mode": 4
        }
      ]
    }
  ],
  "nodes": [
    {
      "children": [
        1
      ],
      "matrix": [
        1.0,
        0.0,
        0.0,
        0.0,
        0.0,
        2.220446049250313e-16,
        -1.0,
        0.0,
        0.0,
        1.0,
        2.220446049250313e-16,
        0.0,
        0.0,
        0.0,
        0.0,
        1.0
      ],
      "name": "Sketchfab_model"
    },
    {
      "children": [
        2
      ],
      "name": "BB_013.obj.cleaner.materialmerger.gles"
    },
    {
      "mesh": 0,
      "name": "Object_2"
    }
  ],
  "samplers": [
    {
      "magFilter": 9729,
      "minFilter": 9987,
      "wrapS": 10497,
      "wrapT": 10497
    }
  ],
  "scene": 0,
  "scenes": [
    {
      "name": "Sketchfab_Scene",
      "nodes": [
        0
      ]
    }
  ],
  "textures": [
    {
      "sampler": 0,
      "source": 0
    },
    {
      "sampler": 0,
      "source": 1
    },
    {
      "sampler": 0,
      "source": 2
    }
  ]
}
